<svg height="522" viewBox="0 0 522 522" width="522" xmlns="http://www.w3.org/2000/svg"><g fill="none"><circle cx="261" cy="261" fill="#ffc72a" r="261"/><g transform="translate(103.429905 47.105479)"><path d="m241.964406 396.142797c20.873186-18.471525 17.721394-51.550417-6.787082-65.236081-6.52077-3.639353-13.894772-5.710062-21.710905-5.750027l-111.820083-.579499c-3.3482942-.017485-6.6216068.337208-9.7837406 1.031608-33.1287164 7.263718-43.4424953 48.155852-18.1997217 70.121855l1.2462375 1.084063c47.5509418 41.384209 119.8637448 41.091962 167.0552948-.671919z" fill="#bc0d65"/><path d="m.31843464 151.07724c.47574212-83.8175113 39.16340176-151.56392134 157.95672636-150.93696356 118.79074.62695778 156.71049 68.77801786 156.237333 152.59802656-.369734 65.323506-8.752103 134.548637-12.229675 160.576127-.770495 5.757521-6.430275 9.629173-12.307242 8.415222-25.532356-5.280433-90.618532 17.237593-133.417224 17.012787-38.403249-.202325-98.4553494-17.352493-122.3045088-9.706605-5.6546088 1.813431-11.6892942-1.363821-13.1578895-6.941497-6.4199331-24.391405-21.23774886-89.684937-20.77752006-171.017097z" fill="#261d1f"/><path d="m158.833641.14277428c118.79074.62695778 156.71049 68.77801792 156.237333 152.59802672-.369734 65.323506-8.752104 134.548637-12.229675 160.576127-.770495 5.757521-6.430275 9.629172-12.307242 8.415222-25.532356-5.280433-113.963508 19.917775-133.417224 21.873583-3.511184-28.875028 52.515208-129.775265 10.101763-187.073211-46.134058-62.3236001-8.384955-156.38974772-8.384955-156.38974772z" fill="#302427"/><path d="m162.802468 368.067078-10.678342-.05745c-11.138571-.059949-20.118203-8.829864-20.05615-19.58806l.204259-36.188702 51.013.269766-.204259 36.188703c-.062053 10.760694-9.139937 19.435691-20.278508 19.375743z" fill="#e5c4a3"/><path d="m148.450052 310.97895 35.871991.269767-.175818 31.030663c-.033612 6.049768-2.321828 11.57499-6.088982 15.843798z" fill="#d3b497"/><path d="m277.040045 186.778864s-22.843378 138.410297-120.171425 137.895742c-97.3306334-.514555-119.0906643-122.366673-118.5140856-136.22219 31.3265846 23.652045 44.8542084-67.461656 44.8542084-67.461656 9.3933214 9.079647 80.8322062 30.498623 80.8322062 30.498623s-3.632705-18.464031 32.128107-54.9324917c-.002586 0 20.224211 83.2754797 80.870989 90.2219727z" fill="#f9d7b2"/><g transform="translate(72.39554 217.28371)"><path d="m58.6071868 51.3243847 53.3787832.2822559s-5.341757 23.7469626-27.4741075 23.632062c-22.1349364-.1198963-25.9046757-23.9143179-25.9046757-23.9143179z" fill="#d34268"/><g fill="#ba5d71" opacity=".2"><ellipse cx="18.975964" cy="19.013894" rx="18.704188" ry="18.069646" transform="matrix(.00549992 -.99998488 .99998488 .00549992 -.142009 37.884996)"/><ellipse cx="151.671973" cy="19.713903" rx="18.704188" ry="18.069646" transform="matrix(.00549992 -.99998488 .99998488 .00549992 131.124184 171.275157)"/></g><path d="m96.6277733 23.1337651c0 4.7683761-5.0728589 8.6325342-11.3299021 8.6325342-6.2570431 0-11.329902-3.8641581-11.329902-8.6325342z" fill="#e5c4a3"/></g><path d="m133.911477 191.78953c-11.280777-31.437811-60.3520255-21.513894-67.5010851-.856759 0 0 15.2780445 18.981084 51.0078291 15.261801.780838-1.206457-12.100397-20.404853 16.493256-14.405042z" fill="#000100"/><g transform="translate(74.169437 177.346623)"><path d="m43.7917509 1.21684538c3.9429714 2.70516046 6.5130131 7.15631092 6.484572 12.18446232-.04654 8.2029058-6.9654852 14.8146877-15.4564479 14.7697266-8.4883771-.0449612-15.3349267-6.7291804-15.2883867-14.9320861.0310266-5.51023456 3.172476-10.29109987 7.7980339-12.82890507-19.9217014 1.8908647-26.5717489 13.45836067-26.5717489 13.45836067s12.9743151 23.1225027 62.1231303 12.1694753c0 .0024978 1.6340708-20.0076965-19.0891527-24.82103372z" fill="#fff"/><path d="m19.5314883 13.241446c-.04654 8.2029058 6.7974241 14.8846271 15.2883867 14.9320861 8.4883771.0449611 15.4099079-6.5668207 15.4564479-14.7697265.0284411-5.02815146-2.539015-9.47930192-6.484572-12.18446238-1.9882918-.46210036-4.1730858-.79181521-6.5957508-.94168559-3.6068492-.22480558-6.8775763-.14737255-9.8664779.13738118-4.6255579 2.53530736-7.7670073 7.31617267-7.7980339 12.82640719zm15.4254212-9.34192072c5.3779544.02747624 9.7294435 4.27879952 9.7010024 9.47430622-.0284411 5.1980046-4.4290558 9.399371-9.8070102 9.3718948s-9.7294435-4.2787995-9.7010024-9.4743062c.0284411-5.19550673 4.4290557-9.40186889 9.8070102-9.37189482z" fill="#53545b"/><path d="m34.8509017 22.7457263c5.3779544.0274762 9.7759835-4.1738902 9.8070102-9.3718948.0284411-5.1955067-4.323048-9.44682998-9.7010024-9.47430622-5.3779545-.02997407-9.7759835 4.17389025-9.8070102 9.37189482-.0284411 5.1955067 4.3204624 9.44683 9.7010024 9.4743062zm-4.183428-16.61063443c1.7323219.00999136 3.1336927 1.37880755 3.1233504 3.05236019-.0103422 1.67355264-1.4272263 3.02738184-3.1569626 3.01739044-1.7323219-.0099914-3.1336927-1.3788076-3.1233505-3.05236019.0103422-1.67355265 1.4246408-3.0273818 3.1569627-3.01739044z" fill="#000109"/><ellipse cx="30.674" cy="9.178321" fill="#fff" rx="3.141497" ry="3.034921" transform="matrix(.00549992 -.99998488 .99998488 .00549992 21.327113 39.801377)"/></g><path d="m69.9138189 184.975423c-1.9158962 1.481219-3.5473815-5.452784-3.5473815-5.452784 8.1444983.482083 10.1146912-1.408782 10.1146912-1.408782-4.723809-1.82592-4.96168-6.299551-4.96168-6.299551 7.8109617 2.570277 12.3848085 1.995773 12.3848085 1.995773-3.3250238-1.925834-3.4103471-7.456051-3.4103471-7.456051 3.8240359 4.496111 11.8004731 5.620139 11.8004731 5.620139-2.8260116-1.765972-3.9378003-6.769145-3.9378003-6.769145 5.9829743 5.620139 12.9122622 6.449422 12.9122622 6.449422-2.1149844-2.145645-.765325-4.623502-.765325-4.623502 5.26419 5.475265 9.897505 5.315403 9.897505 5.315403l-.656731 2.385437c.005171.002498-24.0611751-1.940821-39.8304751 10.243641z" fill="#000100"/><path d="m181.472761 191.78953c11.280777-31.437811 60.352025-21.513894 67.501085-.856759 0 0-15.278045 18.981084-51.00783 15.261801-.783423-1.206457 12.100398-20.404853-16.493255-14.405042z" fill="#000100"/><g transform="translate(177.591637 177.346623)"><path d="m36.2910558.41254097c4.625558 2.5378052 7.7670073 7.32116835 7.798034 12.82890503.04654 8.2029058-6.7974242 14.8846271-15.2883868 14.9320861-8.4883771.0449611-15.4099079-6.5668207-15.4564479-14.7697265-.0284411-5.02815146 2.539015-9.47930192 6.484572-12.18446238-20.72580901 4.81083938-19.08915268 24.82353158-19.08915268 24.82353158 49.14881528 10.9530273 62.12313028-12.1694753 62.12313028-12.1694753s-6.6500475-11.57249167-26.5717489-13.46085853z" fill="#fff"/><path d="m13.3468407 13.4038056c.04654 8.2029058 6.9654852 14.8146876 15.4564478 14.7697265 8.4883771-.0449611 15.3349268-6.7291803 15.2883868-14.9320861-.0310266-5.51023452-3.172476-10.29109983-7.7980339-12.82890503-2.986316-.28475373-6.2570431-.36218676-9.8664779-.13738118-2.4226651.14987038-4.6048735.47958523-6.5957509.94168559-3.9429714 2.7076583-6.513013 7.15880876-6.4845719 12.18696022zm15.3194134-9.50428032c5.3779544-.02997407 9.7759835 4.17389025 9.8070102 9.37189482.0284411 5.1955067-4.323048 9.44683-9.7010024 9.4743062-5.3779545.0274762-9.7759835-4.1738902-9.8070102-9.3718948-.0284411-5.1955067 4.323048-9.44682998 9.7010024-9.47430622z" fill="#53545b"/><path d="m28.7722619 22.7457263c5.3779544-.0274762 9.7294435-4.2787995 9.7010024-9.4743062-.0284411-5.19800457-4.4290558-9.40186889-9.8070102-9.37189482-5.3779544.02747624-9.7294435 4.27879952-9.7010024 9.47430622.0284411 5.1980046 4.4290557 9.399371 9.8070102 9.3718948zm4.1808424-16.61063443c1.7323219-.00999136 3.149206 1.34383779 3.1569627 3.01739044.0077567 1.67355259-1.3910286 3.04236879-3.1233505 3.05236019-1.7323218.0099914-3.149206-1.3438378-3.1569626-3.01739044-.0077567-1.67355264 1.3910286-3.04236883 3.1233504-3.05236019z" fill="#000109"/><ellipse cx="33.01398" cy="9.150826" fill="#fff" rx="3.141497" ry="3.034921" transform="matrix(.99998488 -.00549992 .00549992 .99998488 -.04983 .181713)"/></g><g fill="#000100"><path d="m245.470419 184.975423c1.915896 1.481219 3.547381-5.452784 3.547381-5.452784-8.144498.482083-10.114691-1.408782-10.114691-1.408782 4.723809-1.82592 4.96168-6.299551 4.96168-6.299551-7.810962 2.570277-12.384808 1.995773-12.384808 1.995773 3.325023-1.925834 3.410347-7.456051 3.410347-7.456051-3.824036 4.496111-11.800473 5.620139-11.800473 5.620139 2.826011-1.765972 3.9378-6.769145 3.9378-6.769145-5.982974 5.620139-12.912262 6.449422-12.912262 6.449422 2.114984-2.145645.765324-4.623502.765324-4.623502-5.26419 5.475265-9.897504 5.315403-9.897504 5.315403l.656731 2.385437c-.005171.002498 24.058589-1.940821 39.830475 10.243641z"/><path d="m183.554133 157.112021s37.094958-19.51812 79.068858.417139"/><path d="m129.976262 161.323379s-13.388004-18.606409-66.4746195-6.581808"/></g></g></g></svg>