<?xml version="1.0" encoding="UTF-8"?>
<svg width="522px" height="522px" viewBox="0 0 522 522" version="1.1" xmlns="http://www.w3.org/2000/svg" xmlns:xlink="http://www.w3.org/1999/xlink">
    <!-- Generator: Sketch 48.2 (47327) - http://www.bohemiancoding.com/sketch -->
    <title>Samantha Ming</title>
    <desc>Created with Sketch.</desc>
    <defs></defs>
    <g id="Favicon" stroke="none" stroke-width="1" fill="none" fill-rule="evenodd" transform="translate(-14.000000, -14.000000)">
        <g id="Group-2" transform="translate(14.000000, 14.000000)" fill-rule="nonzero">
            <circle id="Oval" fill="#FFC72A" cx="261" cy="261" r="261"></circle>
            <g id="Avatar" transform="translate(103.429905, 47.105479)">
                <path d="M241.964406,396.142797 C262.837592,377.671272 259.6858,344.59238 235.177324,330.906716 C228.656554,327.267363 221.282552,325.196654 213.466419,325.156689 L101.646336,324.57719 C98.2980418,324.559705 95.0247292,324.914398 91.8625954,325.608798 C58.733879,332.872516 48.4201001,373.76465 73.6628737,395.730653 L74.9091112,396.814716 C122.460053,438.198925 194.772856,437.906678 241.964406,396.142797 Z" id="Shape" fill="#BC0D65"></path>
                <path d="M0.318434635,151.07724 C0.794176757,67.2597287 39.4818364,-0.486681341 158.275161,0.14027644 C277.065901,0.76723422 314.985651,68.9182943 314.512494,152.738303 C314.14276,218.061809 305.760391,287.28694 302.282819,313.31443 C301.512324,319.071951 295.852544,322.943603 289.975577,321.729652 C264.443221,316.449219 199.357045,338.967245 156.558353,338.742439 C118.155104,338.540114 58.1030036,321.389946 34.2538442,329.035834 C28.5992354,330.849265 22.56455,327.672013 21.0959547,322.094337 C14.6760216,297.702932 -0.141794157,232.4094 0.318434635,151.07724 Z" id="Shape" fill="#261D1F"></path>
                <path d="M158.833641,0.142774279 C277.624381,0.76973206 315.544131,68.9207922 315.070974,152.740801 C314.70124,218.064307 306.31887,287.289438 302.841299,313.316928 C302.070804,319.074449 296.411024,322.9461 290.534057,321.73215 C265.001701,316.451717 176.570549,341.649925 157.116833,343.605733 C153.605649,314.730705 209.632041,213.830468 167.218596,156.532522 C121.084538,94.2089219 158.833641,0.142774279 158.833641,0.142774279 Z" id="Shape" fill="#302427"></path>
                <path d="M162.802468,368.067078 L152.124126,368.009628 C140.985555,367.949679 132.005923,359.179764 132.067976,348.421568 L132.272235,312.232866 L183.285235,312.502632 L183.080976,348.691335 C183.018923,359.452029 173.941039,368.127026 162.802468,368.067078 Z" id="Shape" fill="#E5C4A3"></path>
                <path d="M148.450052,310.97895 L184.322043,311.248717 L184.146225,342.27938 C184.112613,348.329148 181.824397,353.85437 178.057243,358.123178 L148.450052,310.97895 Z" id="Shape" fill="#D3B497"></path>
                <path d="M277.040045,186.778864 C277.040045,186.778864 254.196667,325.189161 156.86862,324.674606 C59.5379866,324.160051 37.7779557,202.307933 38.3545344,188.452416 C69.681119,212.104461 83.2087428,120.99076 83.2087428,120.99076 C92.6020642,130.070407 164.040949,151.489383 164.040949,151.489383 C164.040949,151.489383 160.408244,133.025352 196.169056,96.5568913 C196.16647,96.5568913 216.393267,179.832371 277.040045,186.778864 Z" id="Shape" fill="#F9D7B2"></path>
                <g id="Group" transform="translate(72.395540, 217.283710)">
                    <path d="M58.6071868,51.3243847 L111.98597,51.6066406 C111.98597,51.6066406 106.644213,75.3536032 84.5118625,75.2387026 C62.3769261,75.1188063 58.6071868,51.3243847 58.6071868,51.3243847 Z" id="Shape" fill="#D34268"></path>
                    <g transform="translate(0.000000, 0.000000)" fill="#BA5D71" id="Oval" opacity="0.2">
                        <ellipse transform="translate(18.975964, 19.013894) rotate(-89.684876) translate(-18.975964, -19.013894) " cx="18.9759638" cy="19.0138944" rx="18.7041879" ry="18.0696461"></ellipse>
                        <ellipse transform="translate(151.671973, 19.713903) rotate(-89.684876) translate(-151.671973, -19.713903) " cx="151.671973" cy="19.7139027" rx="18.7041879" ry="18.0696461"></ellipse>
                    </g>
                    <path d="M96.6277733,23.1337651 C96.6277733,27.9021412 91.5549144,31.7662993 85.2978712,31.7662993 C79.0408281,31.7662993 73.9679692,27.9021412 73.9679692,23.1337651 L96.6277733,23.1337651 Z" id="Shape" fill="#E5C4A3"></path>
                </g>
                <path d="M133.911477,191.78953 C122.6307,160.351719 73.5594515,170.275636 66.4103919,190.932771 C66.4103919,190.932771 81.6884364,209.913855 117.418221,206.194572 C118.199059,204.988115 105.317824,185.789719 133.911477,191.78953 Z" id="Shape" fill="#000100"></path>
                <g id="Group" transform="translate(74.169437, 177.346623)">
                    <path d="M43.7917509,1.21684538 C47.7347223,3.92200584 50.304764,8.3731563 50.2763229,13.4013077 C50.2297829,21.6042135 43.3108377,28.2159954 34.819875,28.1710343 C26.3314979,28.1260731 19.4849483,21.4418539 19.5314883,13.2389482 C19.5625149,7.72871364 22.7039643,2.94784833 27.3295222,0.410043134 C7.4078208,2.30090783 0.757773303,13.8684038 0.757773303,13.8684038 C0.757773303,13.8684038 13.7320884,36.9909065 62.8809036,26.0378791 C62.8809036,26.0403769 64.5149744,6.0301826 43.7917509,1.21684538 Z" id="Shape" fill="#FFFFFF"></path>
                    <path d="M19.5314883,13.241446 C19.4849483,21.4443518 26.3289124,28.1260731 34.819875,28.1735321 C43.3082521,28.2184932 50.2297829,21.6067114 50.2763229,13.4038056 C50.304764,8.37565414 47.7373079,3.92450368 43.7917509,1.21934322 C41.8034591,0.757242861 39.6186651,0.427528012 37.1960001,0.277657626 C33.5891509,0.0528520478 30.3184238,0.13028508 27.3295222,0.415038813 C22.7039643,2.95034617 19.5625149,7.73121148 19.5314883,13.241446 Z M34.9569095,3.89952528 C40.3348639,3.92700152 44.686353,8.1783248 44.6579119,13.3738315 C44.6294708,18.5718361 40.2288561,22.7732025 34.8509017,22.7457263 C29.4729473,22.7182501 25.1214582,18.4669268 25.1498993,13.2714201 C25.1783404,8.07591337 29.578955,3.86955121 34.9569095,3.89952528 Z" id="Shape" fill="#53545B"></path>
                    <path d="M34.8509017,22.7457263 C40.2288561,22.7732025 44.6268852,18.5718361 44.6579119,13.3738315 C44.686353,8.1783248 40.3348639,3.92700152 34.9569095,3.89952528 C29.578955,3.86955121 25.180926,8.07341553 25.1498993,13.2714201 C25.1214582,18.4669268 29.4703617,22.7182501 34.8509017,22.7457263 Z M30.6674737,6.13509187 C32.3997956,6.14508323 33.8011664,7.51389942 33.7908241,9.18745206 C33.7804819,10.8610047 32.3635978,12.2148339 30.6338615,12.2048425 C28.9015396,12.1948511 27.5001688,10.8260349 27.510511,9.15248231 C27.5208532,7.47892966 28.9351518,6.12510051 30.6674737,6.13509187 Z" id="Shape" fill="#000109"></path>
                    <ellipse id="Oval" fill="#FFFFFF" transform="translate(30.674000, 9.178321) rotate(-89.684876) translate(-30.674000, -9.178321) " cx="30.6739996" cy="9.17832121" rx="3.14149685" ry="3.03492121"></ellipse>
                </g>
                <path d="M69.9138189,184.975423 C67.9979227,186.456642 66.3664374,179.522639 66.3664374,179.522639 C74.5109357,180.004722 76.4811286,178.113857 76.4811286,178.113857 C71.7573196,176.287937 71.5194486,171.814306 71.5194486,171.814306 C79.3304103,174.384583 83.9042571,173.810079 83.9042571,173.810079 C80.5792333,171.884245 80.49391,166.354028 80.49391,166.354028 C84.3179459,170.850139 92.2943831,171.974167 92.2943831,171.974167 C89.4683715,170.208195 88.3565828,165.205022 88.3565828,165.205022 C94.3395571,170.825161 101.268845,171.654444 101.268845,171.654444 C99.1538606,169.508799 100.50352,167.030942 100.50352,167.030942 C105.76771,172.506207 110.401025,172.346345 110.401025,172.346345 L109.744294,174.731782 C109.749465,174.73428 85.6831189,172.790961 69.9138189,184.975423 Z" id="Shape" fill="#000100"></path>
                <path d="M181.472761,191.78953 C192.753538,160.351719 241.824786,170.275636 248.973846,190.932771 C248.973846,190.932771 233.695801,209.913855 197.966016,206.194572 C197.182593,204.988115 210.066414,185.789719 181.472761,191.78953 Z" id="Shape" fill="#000100"></path>
                <g id="Group" transform="translate(177.591637, 177.346623)">
                    <path d="M36.2910558,0.412540974 C40.9166138,2.95034617 44.0580631,7.73370932 44.0890898,13.241446 C44.1356298,21.4443518 37.2916656,28.1260731 28.800703,28.1735321 C20.3123259,28.2184932 13.3907951,21.6067114 13.3442551,13.4038056 C13.315814,8.37565414 15.8832701,3.92450368 19.8288271,1.21934322 C-0.896981905,6.0301826 0.739674418,26.0428748 0.739674418,26.0428748 C49.8884897,36.9959021 62.8628047,13.8733995 62.8628047,13.8733995 C62.8628047,13.8733995 56.2127572,2.30090783 36.2910558,0.412540974 Z" id="Shape" fill="#FFFFFF"></path>
                    <path d="M13.3468407,13.4038056 C13.3933807,21.6067114 20.3123259,28.2184932 28.8032885,28.1735321 C37.2916656,28.128571 44.1382153,21.4443518 44.0916753,13.241446 C44.0606487,7.73121148 40.9191993,2.95034617 36.2936414,0.412540974 C33.3073254,0.127787241 30.0365983,0.050354208 26.4271635,0.275159787 C24.0044984,0.425030173 21.82229,0.754745021 19.8314126,1.21684538 C15.8884412,3.92450368 13.3183996,8.37565414 13.3468407,13.4038056 Z M28.6662541,3.89952528 C34.0442085,3.86955121 38.4422376,8.07341553 38.4732643,13.2714201 C38.5017054,18.4669268 34.1502163,22.7182501 28.7722619,22.7457263 C23.3943074,22.7732025 18.9962784,18.5718361 18.9652517,13.3738315 C18.9368106,8.1783248 23.2882997,3.92700152 28.6662541,3.89952528 Z" id="Shape" fill="#53545B"></path>
                    <path d="M28.7722619,22.7457263 C34.1502163,22.7182501 38.5017054,18.4669268 38.4732643,13.2714201 C38.4448232,8.07341553 34.0442085,3.86955121 28.6662541,3.89952528 C23.2882997,3.92700152 18.9368106,8.1783248 18.9652517,13.3738315 C18.9936928,18.5718361 23.3943074,22.7732025 28.7722619,22.7457263 Z M32.9531043,6.13509187 C34.6854262,6.12510051 36.1023103,7.47892966 36.110067,9.15248231 C36.1178237,10.8260349 34.7190384,12.1948511 32.9867165,12.2048425 C31.2543947,12.2148339 29.8375105,10.8610047 29.8297539,9.18745206 C29.8219972,7.51389942 31.2207825,6.14508323 32.9531043,6.13509187 Z" id="Shape" fill="#000109"></path>
                    <ellipse id="Oval" fill="#FFFFFF" transform="translate(33.013980, 9.150826) rotate(-0.315124) translate(-33.013980, -9.150826) " cx="33.0139799" cy="9.15082624" rx="3.14149685" ry="3.03492121"></ellipse>
                </g>
                <path d="M245.470419,184.975423 C247.386315,186.456642 249.0178,179.522639 249.0178,179.522639 C240.873302,180.004722 238.903109,178.113857 238.903109,178.113857 C243.626918,176.287937 243.864789,171.814306 243.864789,171.814306 C236.053827,174.384583 231.479981,173.810079 231.479981,173.810079 C234.805004,171.884245 234.890328,166.354028 234.890328,166.354028 C231.066292,170.850139 223.089855,171.974167 223.089855,171.974167 C225.915866,170.208195 227.027655,165.205022 227.027655,165.205022 C221.044681,170.825161 214.115393,171.654444 214.115393,171.654444 C216.230377,169.508799 214.880717,167.030942 214.880717,167.030942 C209.616527,172.506207 204.983213,172.346345 204.983213,172.346345 L205.639944,174.731782 C205.634773,174.73428 229.698533,172.790961 245.470419,184.975423 Z" id="Shape" fill="#000100"></path>
                <path d="M183.554133,157.112021 C183.554133,157.112021 220.649091,137.593901 262.622991,157.52916" id="Shape" fill="#000100"></path>
                <path d="M129.976262,161.323379 C129.976262,161.323379 116.588258,142.71697 63.5016425,154.741571" id="Shape" fill="#000100"></path>
            </g>
        </g>
    </g>
</svg>
